<?xml version="1.0" encoding="UTF-8" standalone="no"?>
<!-- Created with Inkscape (http://www.inkscape.org/) -->

<svg
   xmlns:dc="http://purl.org/dc/elements/1.1/"
   xmlns:cc="http://creativecommons.org/ns#"
   xmlns:rdf="http://www.w3.org/1999/02/22-rdf-syntax-ns#"
   xmlns:svg="http://www.w3.org/2000/svg"
   xmlns="http://www.w3.org/2000/svg"
   xmlns:sodipodi="http://sodipodi.sourceforge.net/DTD/sodipodi-0.dtd"
   xmlns:inkscape="http://www.inkscape.org/namespaces/inkscape"
   version="1.1"
   id="svg2"
   xml:space="preserve"
   width="873.38959"
   height="697.76959"
   viewBox="0 0 873.38957 697.7696"
   sodipodi:docname="MATFYZ_MM_barevne.svg"
   inkscape:version="0.92.3 (2405546, 2018-03-11)"><metadata
     id="metadata8"><rdf:RDF><cc:Work
         rdf:about=""><dc:format>image/svg+xml</dc:format><dc:type
           rdf:resource="http://purl.org/dc/dcmitype/StillImage" /><dc:title></dc:title></cc:Work></rdf:RDF></metadata><defs
     id="defs6" /><sodipodi:namedview
     pagecolor="#ffffff"
     bordercolor="#666666"
     borderopacity="1"
     objecttolerance="10"
     gridtolerance="10"
     guidetolerance="10"
     inkscape:pageopacity="0"
     inkscape:pageshadow="2"
     inkscape:window-width="1853"
     inkscape:window-height="1025"
     id="namedview4"
     showgrid="false"
     inkscape:zoom="0.29733907"
     inkscape:cx="436.69495"
     inkscape:cy="348.92161"
     inkscape:window-x="67"
     inkscape:window-y="27"
     inkscape:window-maximized="1"
     inkscape:current-layer="g10" /><g
     id="g10"
     inkscape:groupmode="layer"
     inkscape:label="ink_ext_XXXXXX"
     transform="matrix(1.3333333,0,0,-1.3333333,-124.56506,745.70131)"><g
       id="g12"
       transform="scale(0.1)"><path
         d="M 7483.93,3086.74 6136.77,1739.57 h -1324.9 l 1347.41,1347.17 h 1324.65"
         style="fill:#e94e0f;fill-opacity:1;fill-rule:nonzero;stroke:none"
         id="path14"
         inkscape:connector-curvature="0" /><path
         d="m 7210.43,1001.61 v -88.579 h -308.59 v 91.489 l 179.35,190.24 H 6909.1 v 88.58 h 294.07 v -91.49 l -179.35,-190.24 h 186.61"
         style="fill:#000000;fill-opacity:1;fill-rule:nonzero;stroke:none"
         id="path16"
         inkscape:connector-curvature="0" /><path
         d="M 6847.38,1283.34 6704.34,793.219 h -100.93 l 34.85,119.812 H 6578 l -108.19,370.309 h 114.72 l 73.34,-298.43 74.06,298.43 h 115.45"
         style="fill:#000000;fill-opacity:1;fill-rule:nonzero;stroke:none"
         id="path18"
         inkscape:connector-curvature="0" /><path
         d="m 6437.13,1415.49 -5.08,-72.61 c -21.06,2.18 -37.76,2.9 -50.1,2.9 -52.28,0 -60.99,-6.53 -62.45,-63.17 h 94.4 v -87.85 h -94.4 V 913.031 h -108.91 v 387.009 c 0,96.57 32.67,128.52 129.24,128.52 36.31,0 74.07,-5.81 97.3,-13.07"
         style="fill:#000000;fill-opacity:1;fill-rule:nonzero;stroke:none"
         id="path20"
         inkscape:connector-curvature="0" /><path
         d="M 6151.29,3087.46 C 5702.07,2638.25 5252.62,2188.79 4803.4,1739.57 h -3.15 l -0.72,0.73 1347.4,1347.16 h 4.36"
         style="fill:#e94e0f;fill-opacity:1;fill-rule:nonzero;stroke:none"
         id="path22"
         inkscape:connector-curvature="0" /><path
         d="m 6116.92,998.711 5.81,-78.422 c -24.69,-7.988 -67.53,-14.519 -99.48,-14.519 -80.59,0 -119.8,25.41 -119.8,124.16 v 321.66 l 108.91,30.5 v -98.75 h 87.13 v -88.58 h -87.13 V 1056.8 c 0,-54.46 6.54,-62.448 48.65,-62.448 15.98,0 37.76,1.449 55.91,4.359"
         style="fill:#000000;fill-opacity:1;fill-rule:nonzero;stroke:none"
         id="path24"
         inkscape:connector-curvature="0" /><path
         d="m 5685.62,1068.41 c -26.14,1.45 -52.28,2.91 -68.26,2.91 -38.48,-0.73 -53,-15.98 -53,-44.3 0,-26.86 18.87,-44.29 56.63,-44.29 24.69,0 46.47,8.719 64.63,21.06 z m 0,67.53 v 3.63 c 0,55.91 -17.43,65.35 -74.07,65.35 -38.48,0 -80.59,-2.9 -122.71,-6.53 l -5.08,77.69 c 43.56,7.99 104.56,14.52 147.4,14.52 124.16,0 163.37,-31.95 163.37,-148.13 V 913.031 h -72.61 l -22.51,37.75 c -31.22,-27.59 -69.7,-45.011 -116.9,-45.011 -79.15,0 -124.16,47.921 -124.16,119.8 0,84.96 47.92,113.28 153.2,113.28 23.24,0.72 49.38,-0.73 74.07,-2.91"
         style="fill:#000000;fill-opacity:1;fill-rule:nonzero;stroke:none"
         id="path26"
         inkscape:connector-curvature="0" /><path
         d="m 5424.22,522.629 -17.19,-154.66 h -50.58 l 31.71,231.859 h 50.1 l 51.31,-134.078 50.58,134.078 h 51.56 l 30.49,-231.859 h -50.82 l -16.7,156.351 -45.27,-119.082 h -41.62 l -43.57,117.391"
         style="fill:#e94e0f;fill-opacity:1;fill-rule:nonzero;stroke:none"
         id="path28"
         inkscape:connector-curvature="0" /><path
         d="m 5204.69,402.09 c 9.93,0 18.64,2.91 26.87,8.23 l -54.7,56.399 c -8.47,-7.02 -12.83,-16.457 -12.83,-28.559 0,-21.789 17.43,-36.07 40.66,-36.07 z m -88.58,30.98 c 0,25.168 13.31,48.172 35.58,61.239 -13.07,16.461 -19.61,31.953 -19.61,47.203 0,19.84 6.78,35.57 20.33,47.918 13.8,12.582 31.71,18.879 53.98,18.879 52.04,0 77.93,-20.817 81.81,-65.11 h -53.74 c -1.45,16.942 -11.13,25.903 -28.07,25.903 -13.56,0 -23.96,-8.481 -23.96,-23.243 0,-11.859 4.6,-19.847 20.09,-35.82 l 56.39,-58.09 c 3.87,13.563 5.81,27.84 5.81,43.813 h 50.83 c 0,-28.563 -7.51,-54.942 -22.76,-79.153 l 47.2,-48.64 h -67.04 l -13.07,13.07 c -17.19,-12.109 -36.07,-18.16 -57.36,-18.16 -24.21,0 -45.02,6.051 -61.72,18.402 -16.7,12.578 -24.69,29.77 -24.69,51.789"
         style="fill:#e94e0f;fill-opacity:1;fill-rule:nonzero;stroke:none"
         id="path30"
         inkscape:connector-curvature="0" /><path
         d="m 5130.87,1248.49 c 39.94,25.41 89.31,42.11 127.8,42.11 72.61,0 109.64,-39.94 109.64,-121.98 V 913.031 h -108.92 v 212.019 c 0,67.53 -7.26,76.97 -53,76.97 -17.43,0 -38.49,-2.18 -58.09,-6.54 0.73,-8.71 1.45,-17.43 1.45,-26.86 V 913.031 h -108.91 v 212.019 c 0,67.53 -7.26,76.97 -53.01,76.97 -17.43,0 -38.48,-2.18 -58.09,-6.54 V 913.031 h -108.91 v 370.309 h 72.61 l 19.6,-34.13 c 39.21,24.69 88.59,41.39 127.07,41.39 42.84,0 73.34,-13.79 90.76,-42.11"
         style="fill:#000000;fill-opacity:1;fill-rule:nonzero;stroke:none"
         id="path32"
         inkscape:connector-curvature="0" /><path
         d="m 5019.05,524.32 -45.26,-119.082 h -41.63 l -43.56,117.391 -17.43,-154.66 h -50.34 l 31.7,231.859 h 50.1 l 51.07,-134.078 50.83,134.078 h 51.55 l 30.5,-231.859 h -50.83 l -16.7,156.351"
         style="fill:#e94e0f;fill-opacity:1;fill-rule:nonzero;stroke:none"
         id="path34"
         inkscape:connector-curvature="0" /><path
         d="M 6159.28,3086.74 4811.87,1739.57 h -8.47 c 449.22,449.22 898.67,898.68 1347.89,1347.89 h 1333.37 l -0.73,-0.72 H 6159.28"
         style="fill:#e94e0f;fill-opacity:1;fill-rule:nonzero;stroke:none"
         id="path36"
         inkscape:connector-curvature="0" /><path
         d="m 4800.25,1739.57 h -1.45 l 0.73,0.73 z"
         style="fill:#e94e0f;fill-opacity:1;fill-rule:nonzero;stroke:none"
         id="path38"
         inkscape:connector-curvature="0" /><path
         d="m 4782.34,1740.3 -0.24,-0.24 H 2883.34 v 1899 l 1899,-1898.76"
         style="fill:#e94e0f;fill-opacity:1;fill-rule:nonzero;stroke:none"
         id="path40"
         inkscape:connector-curvature="0" /><path
         d="M 4481.01,1707.38 V 359.488 H 3133.12 V 1707.38 h 1347.89"
         style="fill:#e94e0f;fill-opacity:1;fill-rule:nonzero;stroke:none"
         id="path42"
         inkscape:connector-curvature="0" /><path
         d="M 2850.67,5592.76 V 3710.7 l -941.27,941.03 z"
         style="fill:#e94e0f;fill-opacity:1;fill-rule:nonzero;stroke:none"
         id="path44"
         inkscape:connector-curvature="0" /><path
         d="m 2845.59,3672.94 -953.14,-953.13 -953.126,953.13 953.126,953.14 953.14,-953.14"
         style="fill:#e94e0f;fill-opacity:1;fill-rule:nonzero;stroke:none"
         id="path46"
         inkscape:connector-curvature="0" /><path
         d="M 1875.27,4651.73 934.238,3710.7 v 1882.06 z"
         style="fill:#e94e0f;fill-opacity:1;fill-rule:nonzero;stroke:none"
         id="path48"
         inkscape:connector-curvature="0" /></g></g></svg>